<svg width="48" height="48" viewBox="0 0 110 110" version="1.1"
  xmlns="http://www.w3.org/2000/svg"
  xmlns:xlink="http://www.w3.org/1999/xlink"
  xml:space="preserve"
>
  <g transform="matrix(1,0,0,1,-20.2318,-37.1839)">
    <g transform="matrix(-2.29006,-0.612033,-0.612033,2.29006,221.784,7.44037)">
      <circle cx="50.5" cy="50.5" r="22.986" fill="#14171d" stroke="#0a0c0f" stroke-width="1" />
    </g>
    <path d="M25,92.806l21.401,-5.645l-17.745,-13.123l21.835,2.918l-10.846,-19.505l19.003,11.222l0.064,-0.037l-3.14,-21.901l13.352,17.527l6.076,-21.456c0.876,-0.085 5.344,20.636 5.502,21.37l0.093,0.025l13.172,-17.739c0.834,0.247 -2.704,20.629 -2.915,21.837l19.503,-10.848c0.681,0.56 -10.85,18.428 -11.222,19.004l0.036,0.062l0.074,0.095l21.828,-3.235c0.414,0.766 -16.56,12.678 -17.527,13.356l21.456,6.073l-21.37,5.501l17.714,13.266l-21.835,-2.917l10.846,19.505l-19.003,-11.223l3.076,21.939l-13.352,-17.527l-6.076,21.456l-5.595,-21.395l-13.172,17.739l2.917,-21.835l-19.505,10.846l11.112,-19.162l-21.828,3.235l17.405,-13.936l-21.334,-5.492Z" fill="#cbd1de"/>

    <path d="M58.08,67.757l-3.003,-20.951c-0.033,-0.226 0.091,-0.444 0.301,-0.532c0.21,-0.088 0.453,-0.023 0.591,0.158l12.747,16.731l5.803,-20.493c0.056,-0.198 0.228,-0.342 0.433,-0.362c0.148,-0.014 0.373,0.026 0.568,0.282c0.199,0.262 0.507,1.048 0.852,2.191c1.374,4.545 3.7,15.069 4.41,18.329l12.584,-16.946c0.125,-0.169 0.342,-0.241 0.543,-0.182c0.143,0.043 0.335,0.163 0.42,0.47c0.086,0.311 0.079,1.138 -0.026,2.305c-0.421,4.658 -2.195,15.187 -2.78,18.597l18.589,-10.34c0.18,-0.1 0.402,-0.08 0.561,0.05c0.115,0.095 0.246,0.283 0.202,0.602c-0.044,0.327 -0.384,1.102 -0.949,2.157c-2.271,4.237 -8.171,13.476 -9.9,16.168l20.972,-3.108c0.208,-0.031 0.413,0.072 0.513,0.257c0.071,0.131 0.121,0.351 -0.037,0.629c-0.16,0.281 -0.752,0.86 -1.654,1.611c-3.598,2.992 -12.301,9.165 -15.129,11.157l20.445,5.788c0.218,0.061 0.367,0.261 0.364,0.487c-0.003,0.226 -0.157,0.422 -0.375,0.478l-20.361,5.241l16.88,12.642c0.182,0.136 0.249,0.379 0.163,0.589c-0.086,0.211 -0.303,0.337 -0.529,0.307l-20.848,-2.786l10.362,18.635c0.11,0.197 0.074,0.444 -0.088,0.601c-0.161,0.158 -0.409,0.188 -0.603,0.073l-18.11,-10.695l2.933,20.91c0.031,0.226 -0.093,0.444 -0.303,0.531c-0.21,0.088 -0.453,0.023 -0.59,-0.158l-12.747,-16.731l-5.803,20.493c-0.061,0.217 -0.261,0.366 -0.486,0.364c-0.226,-0.002 -0.422,-0.155 -0.479,-0.374c0,0 -5.331,-20.386 -5.331,-20.386l-12.551,16.902c-0.136,0.183 -0.378,0.251 -0.59,0.165c-0.211,-0.085 -0.337,-0.303 -0.307,-0.529l2.785,-20.848l-18.634,10.362c-0.197,0.11 -0.442,0.074 -0.6,-0.086c-0.158,-0.161 -0.189,-0.407 -0.076,-0.602l10.592,-18.264l-20.802,3.083c-0.223,0.033 -0.441,-0.088 -0.531,-0.295c-0.091,-0.207 -0.031,-0.449 0.145,-0.59l16.625,-13.311l-20.366,-5.243c-0.22,-0.057 -0.374,-0.255 -0.375,-0.483c-0.001,-0.227 0.152,-0.427 0.372,-0.485l20.394,-5.379l-16.907,-12.503c-0.184,-0.135 -0.252,-0.378 -0.167,-0.589c0.086,-0.212 0.304,-0.338 0.53,-0.308l20.848,2.785l-10.362,-18.634c-0.11,-0.198 -0.074,-0.444 0.088,-0.602c0.161,-0.157 0.409,-0.187 0.603,-0.072l18.181,10.737Zm41.163,9.355c-0,0 -0.209,0.028 -0.382,-0.177c-0.005,-0.006 -0.01,-0.012 -0.015,-0.019c-0,0 -0.067,-0.086 -0.07,-0.09c-0.014,-0.018 -0.027,-0.037 -0.04,-0.058l-0.034,-0.06c-0.003,-0.004 -0.005,-0.009 -0.008,-0.014c-0.088,-0.161 -0.08,-0.357 0.019,-0.51c0.297,-0.46 7.722,-11.964 10.332,-16.833c0.152,-0.284 0.291,-0.57 0.411,-0.828l-18.361,10.213c-0.168,0.093 -0.375,0.082 -0.533,-0.03c-0.157,-0.111 -0.236,-0.303 -0.202,-0.493c0.168,-0.964 2.462,-14.175 2.947,-19.546c0.025,-0.281 0.041,-0.559 0.05,-0.814l-12.36,16.646c-0.095,0.127 -0.244,0.202 -0.402,0.202c-0.063,-0 -0.123,-0.012 -0.18,-0.034c0,0 -0.035,-0.006 -0.039,-0.007c-0.179,-0.047 -0.322,-0.191 -0.363,-0.379c-0.126,-0.586 -3.004,-13.938 -4.598,-19.211c-0.092,-0.304 -0.194,-0.602 -0.291,-0.867l-5.719,20.195c-0.051,0.182 -0.201,0.32 -0.388,0.355c-0.186,0.035 -0.376,-0.037 -0.49,-0.188l-12.187,-15.997l2.867,19.997c0.02,0.144 -0.023,0.289 -0.118,0.399c-0.036,0.043 -0.08,0.078 -0.128,0.106c-0.058,0.033 -0.123,0.055 -0.191,0.063l-0.122,0.04c-0.089,0 -0.177,-0.024 -0.254,-0.069l-17.417,-10.286l9.951,17.895c0.092,0.165 0.083,0.368 -0.024,0.524c-0.106,0.157 -0.292,0.239 -0.479,0.214l-19.91,-2.66l16.184,11.968c0.154,0.114 0.23,0.307 0.193,0.496c-0.036,0.189 -0.177,0.34 -0.363,0.389l-19.546,5.156l19.476,5.014c0.183,0.047 0.324,0.194 0.364,0.379c0.04,0.185 -0.029,0.377 -0.177,0.495l-15.961,12.781l19.999,-2.964c0.19,-0.028 0.379,0.055 0.487,0.214c0.108,0.159 0.115,0.365 0.019,0.531l-10.202,17.592l17.919,-9.964c0.165,-0.092 0.368,-0.083 0.524,0.023c0.157,0.107 0.24,0.292 0.215,0.48l-2.662,19.918l12.019,-16.186c0.115,-0.154 0.308,-0.229 0.497,-0.193c0.189,0.037 0.34,0.178 0.389,0.365l5.13,19.618l5.576,-19.689c0.051,-0.183 0.201,-0.32 0.388,-0.355c0.186,-0.036 0.376,0.037 0.49,0.188l12.195,16.006l-2.812,-20.045c-0.026,-0.19 0.058,-0.379 0.218,-0.485c0.16,-0.107 0.367,-0.113 0.532,-0.015l17.417,10.286l-9.951,-17.895c-0.092,-0.165 -0.083,-0.368 0.024,-0.525c0.106,-0.156 0.292,-0.239 0.479,-0.214l19.934,2.664l-16.179,-12.117c-0.154,-0.115 -0.228,-0.308 -0.19,-0.497c0.037,-0.189 0.179,-0.339 0.365,-0.387l19.578,-5.04l-19.675,-5.569c-0.186,-0.053 -0.325,-0.208 -0.357,-0.398c-0.032,-0.19 0.048,-0.382 0.206,-0.493c0.772,-0.541 11.768,-8.256 15.923,-11.712c0.217,-0.18 0.425,-0.365 0.612,-0.539l-20.476,3.035c-0.024,0.003 -0.049,0.005 -0.073,0.005Z" style="fill:#9faac2;"/>
    <g transform="matrix(0.654499,0,0,0.654499,29.8846,45.4637)">
      <circle cx="68.931" cy="72.333" r="35.12" fill="#f1efea" stroke="#9faac2" stroke-width="6" stroke-linejoin="miter" />
    </g>
  </g>
</svg>
