<svg width="24" height="24" viewBox="0 0 150 150" version="1.1"
  xmlns="http://www.w3.org/2000/svg"
  xmlns:xlink="http://www.w3.org/1999/xlink" xml:space="preserve"
style="fill-rule:evenodd;clip-rule:evenodd;stroke-linejoin:round;stroke-miterlimit:2;">
  <g transform="matrix(-2.82083,-0.753884,-0.753884,2.82083,255.523,-36.5018)">
    <circle cx="49.87" cy="52.856" r="25.51" fill="#14171d"/>
  </g>
  <g transform="matrix(9.63091e-17,1.57285,-2.0325,1.24455e-16,259.354,-1.81758)">
    <path d="M48.5,56.263l6.104,12.208l-12.208,-0l6.104,-12.208Z" fill="#ffffff"/>
  </g>
  <g transform="matrix(-9.63091e-17,1.57285,2.0325,1.24455e-16,-109.354,-1.81758)">
    <path d="M48.5,56.263l6.104,12.208l-12.208,-0l6.104,-12.208Z" fill="#ffffff"/>
  </g>
  <g transform="matrix(-1.57285,1.92618e-16,-2.48909e-16,-2.0325,151.283,258.819)">
    <path d="M48.5,56.263l6.104,12.208l-12.208,-0l6.104,-12.208Z" fill="#ffffff"/>
  </g>
  <g transform="matrix(-1.57285,0,0,2.0325,151.283,-109.888)">
    <path d="M48.5,56.263l6.104,12.208l-12.208,-0l6.104,-12.208Z" fill="#ffffff"/>
  </g>
  <g transform="matrix(1.11217,1.11217,-0.915905,0.915905,116.59,-75.1875)">
    <path d="M48.5,56.263l6.104,12.208l-12.208,-0l6.104,-12.208Z" fill="#ffffff"/>
  </g>
  <g transform="matrix(1.11217,1.11217,0.915905,-0.915905,-67.6407,109.043)">
    <path d="M48.5,48.806l6.104,12.208l-12.208,-0l6.104,-12.208Z" fill="#ffffff"/>
  </g>
  <g transform="matrix(-1.11217,1.11217,-0.915905,-0.915905,224.471,115.873)">
    <path d="M48.5,56.263l6.104,12.208l-12.208,-0l6.104,-12.208Z" fill="#ffffff"/>
  </g>
  <g transform="matrix(-1.11217,1.11217,0.915905,0.915905,40.2399,-68.3575)">
    <path d="M48.5,48.806l6.104,12.208l-12.208,-0l6.104,-12.208Z" fill="#ffffff"/>
  </g>
  <g transform="matrix(0.812461,0,0,0.812461,18.9961,8.46476)">
    <circle cx="68.931" cy="81.011" r="38.977" fill="#f1efea"/>
  </g>
</svg>
