<svg width="32" height="32" viewBox="0 0 150 150" version="1.1"
  xmlns="http://www.w3.org/2000/svg"
  xmlns:xlink="http://www.w3.org/1999/xlink" xml:space="preserve"
  style="fill-rule:evenodd;clip-rule:evenodd;stroke-linejoin:round;stroke-miterlimit:2;">
  <path d="M94.232,3.04c39.716,10.614 63.342,51.476 52.728,91.192c-10.614,39.716 -51.476,63.342 -91.192,52.728c-39.716,-10.614 -63.342,-51.476 -52.728,-91.192c10.614,-39.716 51.476,-63.342 91.192,-52.728Zm-31.228,17.971c21.777,9.822 35.01,33.484 30.667,58.077c-4.344,24.592 -24.883,42.289 -48.707,44.056c4.913,2.61 10.313,4.506 16.085,5.525c29.621,5.232 57.917,-14.568 63.149,-44.189c5.232,-29.621 -14.569,-57.917 -44.19,-63.149c-5.772,-1.02 -11.494,-1.089 -17.004,-0.32Z" fill="#14171d"/>
</svg>
