<svg width="100%" height="100%" viewBox="0 0 110 110" version="1.1"
  xmlns="http://www.w3.org/2000/svg"
  xmlns:xlink="http://www.w3.org/1999/xlink" xml:space="preserve"
  xmlns:serif="http://www.serif.com/" style="fill-rule:evenodd;clip-rule:evenodd;stroke-linecap:round;stroke-linejoin:round;stroke-miterlimit:10;">
  <g transform="matrix(1,0,0,1,-20.2318,-37.1839)">
    <g transform="matrix(-2.29006,-0.612033,-0.612033,2.29006,221.784,7.44037)">
      <circle cx="50.5" cy="50.5" r="22.986" style="fill:#14171d;stroke:#0a0c0f;stroke-width:0.42px;"/>
    </g>
    <g transform="matrix(0.926495,0.376307,-0.376307,0.926495,41.4017,-22.0969)">
      <path d="M57.963,46.05c5.316,-1.94 11.054,-2.998 17.037,-2.998c27.46,-0 49.754,22.294 49.754,49.754c0,27.46 -22.294,49.754 -49.754,49.754c-5.983,0 -11.721,-1.058 -17.037,-2.998c19.08,-6.963 32.717,-25.279 32.717,-46.756c0,-21.477 -13.637,-39.794 -32.717,-46.756Z" style="fill:#f1efea;stroke:#0a0c0f;stroke-width:1px;stroke-miterlimit:1.5;"/>
    </g>
  </g>
</svg>
