<svg width="32" height="32" viewBox="0 0 150 150" version="1.1"
  xmlns="http://www.w3.org/2000/svg"
  xmlns:xlink="http://www.w3.org/1999/xlink" xml:space="preserve"
  style="fill-rule:evenodd;clip-rule:evenodd;stroke-linejoin:round;stroke-miterlimit:2;">
  <path d="M94.232,3.04c39.716,10.614 63.342,51.476 52.728,91.192c-10.614,39.716 -51.476,63.342 -91.192,52.728c-39.716,-10.614 -63.342,-51.476 -52.728,-91.192c10.614,-39.716 51.476,-63.342 91.192,-52.728Zm-19.232,1.426l-9.601,24.813l19.202,-0l-9.601,-24.813Zm0,38.15c-17.478,0 -31.667,14.19 -31.667,31.667c-0,17.478 14.189,31.667 31.667,31.667c17.478,0 31.667,-14.189 31.667,-31.667c0,-17.477 -14.189,-31.667 -31.667,-31.667Zm43.999,75.666l-4.393,-17.97l-13.577,13.578l17.97,4.392Zm26.001,-43.816l-24.813,-9.601l-0,19.201l24.813,-9.6Zm-113.999,-44.182l4.393,17.97l13.577,-13.577l-17.97,-4.393Zm43.999,114.182l9.601,-24.813l-19.202,-0l9.601,24.813Zm43.999,-114.182l-17.97,4.393l13.577,13.577l4.393,-17.97Zm-113.999,44.182l24.813,9.6l0,-19.201l-24.813,9.601Zm26.001,43.816l17.97,-4.392l-13.577,-13.578l-4.393,17.97Z" fill="#14171d"/>
</svg>
