<svg width="48" height="48" viewBox="0 0 150 150" version="1.1"
  xmlns="http://www.w3.org/2000/svg"
  xmlns:xlink="http://www.w3.org/1999/xlink" xml:space="preserve"
  style="fill-rule:evenodd;clip-rule:evenodd;stroke-linecap:round;stroke-linejoin:round;stroke-miterlimit:10;">
  <path d="M94.232,3.04c39.716,10.614 63.342,51.476 52.728,91.192c-10.614,39.716 -51.476,63.342 -91.192,52.728c-39.716,-10.614 -63.342,-51.476 -52.728,-91.192c10.614,-39.716 51.476,-63.342 91.192,-52.728Zm-19.232,7.019l-8.537,14.061l17.074,0l-8.537,-14.061Zm45.413,109.638l-3.906,-15.98l-12.073,12.073l15.979,3.907Zm0,-90.827l-15.979,3.906l12.073,12.074l3.906,-15.98Zm-90.826,90.827l15.979,-3.907l-12.073,-12.073l-3.906,15.98Zm45.413,-77.081c-17.478,0 -31.667,14.19 -31.667,31.667c-0,17.478 14.189,31.667 31.667,31.667c17.478,0 31.667,-14.189 31.667,-31.667c0,-17.477 -14.189,-31.667 -31.667,-31.667Zm0,95.891l8.537,-14.061l-17.074,-0l8.537,14.061Zm-64.224,-64.224l14.061,8.537l0,-17.074l-14.061,8.537Zm128.448,0l-14.061,-8.537l-0,17.074l14.061,-8.537Zm-109.637,-45.413l3.906,15.98l12.073,-12.074l-15.979,-3.906Z" fill="#0a0c0f"/>
</svg>
